# xmcd
#
# Track frame offsets:
#	150
#	11728
#	32230
#	110689
#	135917
#	169501
#	184647
#	225035
#	241789
#
# Disc length: 3491 seconds
#
# Revision: 1
# Processed by: cddbd v1.5.2PL0 Copyright (c) Steve Scherf et al.
# Submitted via: audiograbber 1.83.01
#
DISCID=5e0da109
DTITLE=Grateful Dead - 71-07-02 Fillmore West, San Francisco CA
DYEAR=1900
DGENRE=
TTITLE0=Cryptical Envelopment
TTITLE1=Drums
TTITLE2=The Other One > Cryptical Envelopment
TTITLE3=Big Boss Man
TTITLE4=Casey Jones
TTITLE5=Not Fade Away
TTITLE6=Going Down The Road Feeling Band
TTITLE7=Not Fade Away
TTITLE8=Johnny B Goode
EXTD=
EXTT0=
EXTT1=
EXTT2=
EXTT3=
EXTT4=
EXTT5=
EXTT6=
EXTT7=
EXTT8=
PLAYORDER=
